<?xml version="1.0" standalone="yes"?>
<svg xmlns="http://www.w3.org/2000/svg" width="512" height="512">
<path style="fill:#010101; stroke:none;" d="M0 0L0 512L246 512L246 511C228.758 508.416 210.04 492.435 195 483.85C157.242 462.297 119.402 440.768 82 418.603C64.6713 408.335 41.7655 400.054 32.3735 381C23.7766 363.56 28 338.945 28 320L28 190C28 169.963 23.6366 144.789 34.6196 127C45.3779 109.575 69.7754 100.296 87 90.4213C123.383 69.5629 159.728 48.6269 196 27.5756C210.688 19.0511 229.075 3.53702 246 1L223 0L173 0L0 0z"/>
<path style="fill:#659bd3; stroke:none;" d="M33 384L64 367.15L125 332C102.678 289.576 97.2283 241.893 116.427 197C153.564 110.165 264.474 77.1122 342 131.438C360.427 144.351 375.26 160.887 387 180L427 157.603L478 128C472.64 115.815 459.983 109.967 449 103.719C428.275 91.9294 407.56 80.0645 387 67.9892C359.779 52.002 332.387 36.2796 305 20.5787C292.655 13.5011 278.467 1.72803 264 0.173615C239.537 -2.45477 221.196 12.557 201 24.1497C163.959 45.4118 127.092 66.9764 90 88.1505C73.3046 97.6812 49.5441 106.817 37.3789 122C23.0018 139.943 28 167.551 28 189L28 315C28 337.754 24.7065 362.501 33 384z"/>
<path style="fill:#010101; stroke:none;" d="M266 0L266 1C283.984 3.69577 304.468 20.5492 320 29.7994C355.695 51.0576 391.919 71.5532 428 92.1505C445.281 102.015 469.822 111.325 479.19 130C485.349 142.279 484 155.697 484 169L484 235L484 330C484 345.736 486.771 364.199 480.535 379C472.055 399.129 447.832 408.559 430 418.719C392.226 440.242 354.705 462.207 317 483.85C301.957 492.485 283.286 508.409 266 511L266 512L512 512L512 0L266 0z"/>
<path style="fill:#01ffff; stroke:none;" d="M228 8L229 9L228 8M290 12L291 13L290 12M202 23L203 24L202 23M316 27L317 28L316 27M176 38L177 39L176 38M361 53L362 54L361 53M131 64L132 65L131 64M387 68L388 69L387 68M105 79L106 80L105 79M413 83L414 84L413 83M79 94L80 95L79 94z"/>
<path style="fill:#fefeff; stroke:none;" d="M321 218L387 181C382.625 166.134 367.524 151.314 356 141.59C323.29 113.989 278.789 98.924 236 105.59C155.626 118.112 93.5825 192.277 105.428 275C118.132 363.716 205.197 424.926 293 402.873C322.145 395.553 349.279 379.586 369.155 357C374.231 351.232 384.192 341.898 385.596 334.043C386.472 329.144 376.397 325.396 373 323.424C361.011 316.466 348.926 309.67 337 302.603C333.419 300.481 326.582 294.755 322.184 295.817C316.388 297.217 309.737 309.568 305 313.561C292.039 324.485 275.125 331.793 258 331.996C243.98 332.162 230.069 328.591 218 321.396C207.804 315.318 198.828 307.02 192.387 297C155.717 239.96 210.829 165.292 276 183.152C285.309 185.703 294.422 190.306 302 196.286C309.706 202.368 316.204 209.395 321 218z"/>
<path style="fill:#01ffff; stroke:none;" d="M60 105L61 106L60 105M458 109L459 110L458 109M477 126L478 127L477 126z"/>
<path style="fill:#014d8d; stroke:none;" d="M191 293C194.453 303.835 204.786 312.888 214 318.996C246.959 340.844 303.727 333.517 321 294C338.311 301.245 354.853 312.828 371 322.397C374.481 324.459 385.514 328.401 385.579 333.105C385.659 338.877 377.369 346.772 373.996 351C360.543 367.864 343.254 381.618 324 391.247C253.967 426.268 163.923 401.914 125 332C93.7367 345.085 62.9174 366.302 34 384C39.3081 396.068 51.2967 401.261 62 407.603C84.1782 420.746 106.6 433.518 129 446.281C155.084 461.143 181.173 476.092 207 491.397C219.109 498.572 233.728 510.293 248 511.826C272.226 514.429 291.053 499.704 311 487.989C347.84 466.353 384.895 445.029 422 423.85C438.672 414.333 462.446 405.276 474.482 390C489.004 371.57 484 343.981 484 322L484 196C484 173.527 487.192 149.236 479 128L448 144.989L395 175.576L254 256.85L191 293z"/>
<path style="fill:#659bd3; stroke:none;" d="M190 295L191 295C201.797 283.865 220.557 276.726 234 269C262.943 252.366 291.466 234.556 321 219C318.641 208.962 309.004 200.615 301 194.757C274.082 175.055 236.631 175.695 210 195.478C190.416 210.027 177.82 236.411 180.17 261C181.362 273.479 186.625 283.284 190 295M385 181L386 182L385 181M383 182L384 183L383 182M381 183L382 184L381 183M378 185L379 186L378 185M376 186L377 187L376 186M374 187L375 188L374 187M373 188L374 189L373 188M371 189L372 190L371 189M369 190L370 191L369 190M366 192L367 193L366 192M364 193L365 194L364 193M362 194L363 195L362 194M359 196L360 197L359 196M357 197L358 198L357 197M355 198L356 199L355 198M354 199L355 200L354 199M352 200L353 201L352 200M350 201L351 202L350 201M347 203L348 204L347 203M345 204L346 205L345 204M343 205L344 206L343 205M340 207L341 208L340 207M338 208L339 209L338 208M336 209L337 210L336 209M335 210L336 211L335 210M333 211L334 212L333 211M331 212L332 213L331 212M329 213L330 214L329 213M328 214L329 215L328 214M326 215L327 216L326 215M324 216L325 217L324 216M374 230L374 231L391 231L374 230M437 230L437 231L454 231L437 230z"/>
<path style="fill:#fefeff; stroke:none;" d="M374 231L374 248L357 248L357 264L374 264L374 281L391 281L391 264L407 264L407 248L391 248L391 231L374 231M437 231L437 248L420 248L420 264L437 264L437 281L454 281L454 264L471 264L471 248L454 248L454 231L437 231z"/>
<path style="fill:#659bd3; stroke:none;" d="M357 247L357 248L374 248L357 247M391 247L391 248L407 248L407 264L391 264L391 265L408 265L408 247L391 247M420 247L420 248L437 248L420 247M454 247L454 248L471 248L454 247M357 264L357 265L374 265L357 264M420 264L420 265L437 265L420 264M454 264L454 265L471 265L454 264M374 281L374 282L391 282L374 281M437 281L437 282L454 282L437 281M321.667 294.333L322.333 294.667L321.667 294.333M191 295L192 296L191 295M320 295L321 296L320 295M324 295L325 296L324 295M326 296L327 297L326 296M192 297L193 298L192 297M319 297L320 298L319 297M328 297L329 298L328 297M193 298L194 299L193 298M329 298L330 299L329 298M331 299L332 300L331 299M194 300L195 301L194 300M317 300L318 301L317 300M333 300L334 301L333 300M195 301L196 302L195 301M316 301L317 302L316 301M336 302L337 303L336 302M338 303L339 304L338 303M340 304L341 305L340 304M198 305L199 306L198 305M313 305L314 306L313 305M341 305L342 306L341 305M199 306L200 307L199 306M312 306L313 307L312 306M343 306L344 307L343 306M200 307L201 308L200 307M311 307L312 308L311 307M345 307L346 308L345 307M201 308L202 309L201 308M310 308L311 309L310 308M347 308L348 309L347 308M202 309L203 310L202 309M309 309L310 310L309 309M348 309L349 310L348 309M203 310L204 311L203 310M308 310L309 311L308 310M350 310L351 311L350 310M204 311L205 312L204 311M307 311L308 312L307 311M352 311L353 312L352 311M205 312L206 313L205 312M306 312L307 313L306 312M206 313L207 314L206 313M305 313L306 314L305 313M355 313L356 314L355 313M357 314L358 315L357 314M359 315L360 316L359 315M210 316L211 317L210 316M301 316L302 317L301 316M360 316L361 317L360 316M211 317L212 318L211 317M300 317L301 318L300 317M362 317L363 318L362 317M213 318L214 319L213 318M298 318L299 319L298 318M364 318L365 319L364 318M214 319L215 320L214 319M297 319L298 320L297 319M366 319L367 320L366 319M216 320L217 321L216 320M295 320L296 321L295 320M367 320L368 321L367 320M369 321L370 322L369 321M219 322L220 323L219 322M292 322L293 323L292 322M371 322L372 323L371 322M221 323L222 324L221 323M290 323L291 324L290 323M223 324L224 325L223 324M288 324L289 325L288 324M374 324L375 325L374 324M225 325L226 326L225 325M286 325L287 326L286 325M376 325L377 326L376 325M228 326L229 327L228 326M283 326L284 327L283 326M378 326L379 327L378 326M230.667 327.333L231.333 327.667L230.667 327.333M280.667 327.333L281.333 327.667L280.667 327.333M379 327L380 328L379 327M233.667 328.333L234.333 328.667L233.667 328.333M277.667 328.333L278.333 328.667L277.667 328.333M381 328L382 329L381 328M237.667 329.333L238.333 329.667L237.667 329.333M273.667 329.333L274.333 329.667L273.667 329.333M383 329L384 330L383 329M241.667 330.333L242.333 330.667L241.667 330.333M268 330L268 331L271 331L268 330M385 330L386 331L385 330M247 331L247 332L254 332L247 331M258 331L258 332L265 332L258 331M386 331L387 332L386 331M125 333L126 334L125 333M386 333L387 334L386 333M127 336L128 337L127 336M384 336L385 337L384 336M383 338L384 339L383 338M129 339L130 340L129 339M382 339L383 340L382 339M381 341L382 342L381 341M131 342L132 343L131 342M380 342L381 343L380 342M133 345L134 346L133 345M378 345L379 346L378 345M134 346L135 347L134 346M377 346L378 347L377 346M136 349L137 350L136 349M375 349L376 350L375 349M137 350L138 351L137 350M374 350L375 351L374 350M138 351L139 352L138 351M371 354L372 355L371 354M141 355L142 356L141 355M370 355L371 356L370 355M142 356L143 357L142 356M369 356L370 357L369 356M143 357L144 358L143 357M368 357L369 358L368 357M144 358L145 359L144 358M367 358L368 359L367 358M145 359L146 360L145 359M146 360L147 361L146 360M152 366L153 367L152 366M153 367L154 368L153 367M358 367L359 368L358 367M154 368L155 369L154 368M357 368L358 369L357 368M155 369L156 370L155 369M356 369L357 370L356 369M156 370L157 371L156 370M355 370L356 371L355 370M354 371L355 372L354 371M160 373L161 374L160 373M351 373L352 374L351 373M161 374L162 375L161 374M350 374L351 375L350 374M162 375L163 376L162 375M349 375L350 376L349 375M165 377L166 378L165 377M346 377L347 378L346 377M166 378L167 379L166 378M345 378L346 379L345 378M169 380L170 381L169 380M342 380L343 381L342 380M172 382L173 383L172 382M339 382L340 383L339 382M175 384L176 385L175 384M336 384L337 385L336 384M177 385L178 386L177 385M334 385L335 386L334 385M178 386L179 387L178 386M333 386L334 387L333 386M180 387L181 388L180 387M331 387L332 388L331 387M182 388L183 389L182 388M329 388L330 389L329 388M184 389L185 390L184 389M327 389L328 390L327 389M186 390L187 391L186 390M187 391L188 392L187 391M323 391L324 392L323 391M189 392L190 393L189 392M321 392L322 393L321 392M192 393L193 394L192 393M319 393L320 394L319 393M194 394L195 395L194 394M317 394L318 395L317 394M196 395L197 396L196 395M315 395L316 396L315 395M198.667 396.333L199.333 396.667L198.667 396.333M312.667 396.333L313.333 396.667L312.667 396.333M201 397L202 398L201 397M310 397L311 398L310 397M203.667 398.333L204.333 398.667L203.667 398.333M307 398L308 399L307 398M206.667 399.333L207.333 399.667L206.667 399.333M304.667 399.333L305.333 399.667L304.667 399.333M209.667 400.333L210.333 400.667L209.667 400.333M301.667 400.333L302.333 400.667L301.667 400.333M212.667 401.333L213.333 401.667L212.667 401.333M298.667 401.333L299.333 401.667L298.667 401.333M216.667 402.333L217.333 402.667L216.667 402.333M294.667 402.333L295.333 402.667L294.667 402.333M220.667 403.333L221.333 403.667L220.667 403.333M290.667 403.333L291.333 403.667L290.667 403.333M224.667 404.333L225.333 404.667L224.667 404.333M286.667 404.333L287.333 404.667L286.667 404.333M229 405L229 406L232 406L229 405M280 405L280 406L283 406L280 405M236 406L236 407L239 407L236 406M273 406L273 407L277 407L273 406M245 407L245 408L267 408L245 407z"/>
</svg>
