<?xml version="1.0" standalone="yes"?>
<svg xmlns="http://www.w3.org/2000/svg" width="512" height="512">
<path style="fill:#010101; stroke:none;" d="M0 0L0 512L512 512L512 0L0 0z"/>
<path style="fill:#0aa7e3; stroke:none;" d="M154 162L155 162C192.635 113.624 274.965 105.386 326 134.579C337.959 141.42 349.12 149.658 358.285 160.001C361.337 163.444 365.659 166.524 367 171C377.842 174.039 390.033 192.033 398 200L472 274L491.999 294C493.95 295.961 498.663 299.377 498.23 302.576C497.81 305.678 493.077 308.926 491 311L491 303L481 312L481 309L480 309L471 318L471 310L461 319L461 316L460 316L451 325L451 317L441 326L441 323L440 323L431 332L431 322L421 331L421 328L420 328L411 337L411 333L400 343L400 340L399 340L387 352L387 349L386 349L375 360L375 357L374 357L362 369L362 365L351 375L351 368L341 377L341 373L331 382L331 379L330 379L321 388L321 380L316 382L311 389L310 385L309 385L301 395L301 392L300 392L291 401L291 393L281 402L281 399L280 399L271 408L271 405L270 405L261 414L261 410L250 420L250 417L249 417L239 427L239 419L232 426L231 426L192 386L176 368C169.061 366.133 159.154 355.775 155 350C151.493 358.357 154 371.94 154 381L154 453C154 459.744 150.599 480.257 155.742 485.027C164.218 492.888 183.056 496.125 194 498.873C232.37 508.51 274.44 509.255 313 500.116C412.392 476.559 486.609 395.217 503.565 295C525.806 163.542 433.633 35.507 304 10.0008C266.774 2.67627 226.597 4.2515 190 14.1512C181.27 16.5128 160.721 19.9274 155.179 27.5602C150.159 34.4736 154 55.5381 154 64L154 162z"/>
<path style="fill:#0278a4; stroke:none;" d="M185 15L186 16L185 15M326 15L327 16L326 15M167 21L168 22L167 21z"/>
<path style="fill:#26c2f3; stroke:none;" d="M344 21L345 22L344 21M165 22L166 23L165 22M162 23L163 24L162 23M160 24L161 25L160 24M157.667 25.3333L158.333 25.6667L157.667 25.3333M354 25L355 26L354 25M151 482L155 485L154 439L154 350L155 350L160 356C150.261 341.277 138.802 329.365 131.309 313C113.218 273.491 116.585 224.719 137.312 187C146.618 170.065 161.66 159.828 173 145C166.419 149.117 158.668 155.075 155 162L154 162L154 73L155 27C130.406 35.7491 107.192 52.215 88.0895 69.7006C3.68563 146.962 -17.2065 270.342 33.7531 372C51.955 408.31 80.083 438.701 113 462.14C122.59 468.968 138.91 481.821 151 482z"/>
<path style="fill:#0aa7e3; stroke:none;" d="M151 28L152 29L151 28M149 29L150 30L149 29M143 32L144 33L143 32z"/>
<path style="fill:#26c2f3; stroke:none;" d="M380 38L381 39L380 38z"/>
<path style="fill:#0278a4; stroke:none;" d="M393 46L394 47L393 46z"/>
<path style="fill:#26c2f3; stroke:none;" d="M396 48L397 49L396 48z"/>
<path style="fill:#0278a4; stroke:none;" d="M411 59L412 60L411 59z"/>
<path style="fill:#26c2f3; stroke:none;" d="M416 63L417 64L416 63z"/>
<path style="fill:#0aa7e3; stroke:none;" d="M87 70L88 71L87 70M84 73L85 74L84 73M73 84L74 85L73 84M70 87L71 88L70 87z"/>
<path style="fill:#0278a4; stroke:none;" d="M441 87L442 88L441 87z"/>
<path style="fill:#26c2f3; stroke:none;" d="M448 95L449 96L448 95M452 100L453 101L452 100z"/>
<path style="fill:#0278a4; stroke:none;" d="M463 115L464 116L463 115z"/>
<path style="fill:#26c2f3; stroke:none;" d="M243 118L243 119L250 119L243 118z"/>
<path style="fill:#feffff; stroke:none;" d="M392 278L340 278C334.791 278 323.907 275.94 319.51 279.028C314.974 282.213 313.009 293.167 309.91 298C301.551 311.033 288.213 321.166 273 324.575C259.956 327.498 246.297 326.191 234 320.985C222.635 316.174 212.724 307.344 206.09 297C186.335 266.197 192.342 218.817 223 197.209C256.452 173.633 306.866 189.29 318 230L392 230C381.338 188.789 363.421 154.055 324 133.32C267.285 103.489 191.562 118.104 150.439 167C126.57 195.38 115.894 235.28 120.285 272C127.25 330.234 168.043 377.787 226 390.338C289.211 404.027 356.115 376.145 382.28 315C387.148 303.625 391.743 290.471 392 278z"/>
<path style="fill:#26c2f3; stroke:none;" d="M268 118L268 119L274 119L268 118M465 118L466 119L465 118M236 119L236 120L239 120L236 119M279 119L279 120L282 120L279 119M230 120L230 121L233 121L230 120M285.667 120.333L286.333 120.667L285.667 120.333M225.667 121.333L226.333 121.667L225.667 121.333M290.667 121.333L291.333 121.667L290.667 121.333M221.667 122.333L222.333 122.667L221.667 122.333M294.667 122.333L295.333 122.667L294.667 122.333M217.667 123.333L218.333 123.667L217.667 123.333M298.667 123.333L299.333 123.667L298.667 123.333M214.667 124.333L215.333 124.667L214.667 124.333M302 124L303 125L302 124M211 125L212 126L211 125M305 125L306 126L305 125M208 126L209 127L208 126M308 126L309 127L308 126M205.667 127.333L206.333 127.667L205.667 127.333M310.667 127.333L311.333 127.667L310.667 127.333M203 128L204 129L203 128M313 128L314 129L313 128M200.667 129.333L201.333 129.667L200.667 129.333M315 129L316 130L315 129M198 130L199 131L198 130M317.667 130.333L318.333 130.667L317.667 130.333M196 131L197 132L196 131M320 131L321 132L320 131M473 131L474 132L473 131M194 132L195 133L194 132M322 132L323 133L322 132M192 133L193 134L192 133M324 133L325 134L324 133M190 134L191 135L190 134M188 135L189 136L188 135M327 135L328 136L327 135M186 136L187 137L186 136M329 136L330 137L329 136M185 137L186 138L185 137M331 137L332 138L331 137M183 138L184 139L183 138M332 138L333 139L332 138M181 139L182 140L181 139M334 139L335 140L334 139M180 140L181 141L180 140M178 141L179 142L178 141M337 141L338 142L337 141M177 142L178 143L177 142M338 142L339 143L338 142M175 143L176 144L175 143M340 143L341 144L340 143M174 144L175 145L174 144M341 144L342 145L341 144M345 147L346 148L345 147M346 148L347 149L346 148M347 149L348 150L347 149M352 153L353 154L352 153M353 154L354 155L353 154M354 155L355 156L354 155M355 156L356 157L355 156M356 157L357 158L356 157M486 157L487 158L486 157M361 163L362 164L361 163M362 164L363 165L362 164M363 165L364 166L363 165z"/>
<path style="fill:#0278a4; stroke:none;" d="M364 166L365 167L364 166M365 167L366 168L365 167z"/>
<path style="fill:#26c2f3; stroke:none;" d="M490 167L491 168L490 167z"/>
<path style="fill:#0278a4; stroke:none;" d="M366 168L368 170L366 168z"/>
<path style="fill:#26c2f3; stroke:none;" d="M366 169L367 170L366 169z"/>
<path style="fill:#0278a4; stroke:none;" d="M368 170L379.741 191L392 230L342 230C335.831 230 325.919 231.889 320.214 229.397C313.942 226.657 308.813 210.524 303.826 205.004C286.924 186.293 258.057 181.141 235 190.453C171.405 216.137 187.388 323.024 257 325.961C276.779 326.795 296.537 317.16 307.957 301C311.796 295.567 314.243 282.533 319.43 279.028C323.967 275.962 334.686 278 340 278L393 278C387.46 306.569 377.051 332.405 356.91 354C350.726 360.631 343.542 366.615 336 371.645C328.496 376.65 321.035 378.028 321 388L331 379L331 382L332 382L341 373L341 377L351 368L351 375L362 365L362 369L375 357L375 360L376 360L387 349L387 352L388 352L400 340L400 343L401 343L411 333L411 337L421 328L421 331L422 331L431 322L431 332L441 323L441 326L442 326L451 317L451 325L461 316L461 319L462 319L471 310L471 318L481 309L481 312L482 312L491 303L491 311L498.654 302L491.999 293L471 272L404 205L368 170z"/>
<path style="fill:#26c2f3; stroke:none;" d="M368 172L369 173L368 172M369 173L370 174L369 173M371 176L372 177L371 176z"/>
<path style="fill:#0aa7e3; stroke:none;" d="M373 179L374 180L373 179z"/>
<path style="fill:#26c2f3; stroke:none;" d="M374 181L375 182L374 181M375 183L376 184L375 183z"/>
<path style="fill:#0aa7e3; stroke:none;" d="M376 184L377 185L376 184z"/>
<path style="fill:#26c2f3; stroke:none;" d="M496 185L497 186L496 185M248.667 186.333L249.333 186.667L248.667 186.333z"/>
<path style="fill:#0aa7e3; stroke:none;" d="M250 186L251 187L250 186M267 186L268 187L267 186z"/>
<path style="fill:#26c2f3; stroke:none;" d="M268.667 186.333L269.333 186.667L268.667 186.333z"/>
<path style="fill:#0aa7e3; stroke:none;" d="M377 186L378 187L377 186z"/>
<path style="fill:#26c2f3; stroke:none;" d="M243.667 187.333L244.333 187.667L243.667 187.333M273.667 187.333L274.333 187.667L273.667 187.333M240 188L241 189L240 188M277 188L278 189L277 188M378 188L379 189L378 188M237 189L238 190L237 189M280 189L281 190L280 189M234 190L235 191L234 190z"/>
<path style="fill:#0aa7e3; stroke:none;" d="M282 190L283 191L282 190z"/>
<path style="fill:#26c2f3; stroke:none;" d="M283 190L284 191L283 190M379 190L380 191L379 190M232 191L233 192L232 191M285 191L286 192L285 191M230 192L231 193L230 192M287 192L288 193L287 192z"/>
<path style="fill:#0aa7e3; stroke:none;" d="M380 192L381 193L380 192z"/>
<path style="fill:#26c2f3; stroke:none;" d="M228 193L229 194L228 193z"/>
<path style="fill:#0aa7e3; stroke:none;" d="M290 194L291 195L290 194M381 194L382 195L381 194z"/>
<path style="fill:#26c2f3; stroke:none;" d="M292 195L293 196L292 195M223 196L224 197L223 196z"/>
<path style="fill:#0aa7e3; stroke:none;" d="M222 197L223 198L222 197z"/>
<path style="fill:#26c2f3; stroke:none;" d="M295 197L296 198L295 197M382 197L383 198L382 197M296 198L297 199L296 198M219 199L220 200L219 199M383 199L384 200L383 199M218 200L219 201L218 200z"/>
<path style="fill:#0aa7e3; stroke:none;" d="M217 201L218 202L217 201M216 202L217 203L216 202z"/>
<path style="fill:#26c2f3; stroke:none;" d="M384 202L385 203L384 202z"/>
<path style="fill:#0aa7e3; stroke:none;" d="M385 204L386 205L385 204M213 205L214 206L213 205z"/>
<path style="fill:#26c2f3; stroke:none;" d="M385 205L386 206L385 205M212 206L213 207L212 206M211 207L212 208L211 207z"/>
<path style="fill:#0aa7e3; stroke:none;" d="M386 207L387 208L386 207z"/>
<path style="fill:#26c2f3; stroke:none;" d="M210 208L211 209L210 208z"/>
<path style="fill:#0aa7e3; stroke:none;" d="M306 208L307 209L306 208z"/>
<path style="fill:#26c2f3; stroke:none;" d="M386 208L387 209L386 208M307 209L308 210L307 209z"/>
<path style="fill:#0aa7e3; stroke:none;" d="M387 210L388 211L387 210z"/>
<path style="fill:#26c2f3; stroke:none;" d="M208 211L209 212L208 211M387 211L388 212L387 211z"/>
<path style="fill:#0aa7e3; stroke:none;" d="M309 212L310 213L309 212z"/>
<path style="fill:#26c2f3; stroke:none;" d="M310 213L311 214L310 213z"/>
<path style="fill:#0aa7e3; stroke:none;" d="M206 214L207 215L206 214z"/>
<path style="fill:#26c2f3; stroke:none;" d="M388 214L389 215L388 214z"/>
<path style="fill:#0aa7e3; stroke:none;" d="M311 215L312 216L311 215z"/>
<path style="fill:#26c2f3; stroke:none;" d="M204 217L205 218L204 217z"/>
<path style="fill:#0aa7e3; stroke:none;" d="M389 217L390 218L389 217z"/>
<path style="fill:#26c2f3; stroke:none;" d="M313 218L314 219L313 218M389 218L390 219L389 218M203 219L204 220L203 219M314 220L315 221L314 220M202 221L203 222L202 221M315 222L316 223L315 222M390.333 222.667L390.667 223.333L390.333 222.667M201 223L202 224L201 223M200 225L201 226L200 225z"/>
<path style="fill:#0aa7e3; stroke:none;" d="M316 225L317 226L316 225z"/>
<path style="fill:#26c2f3; stroke:none;" d="M317 227L318 228L317 227M391.333 227.667L391.667 228.333L391.333 227.667M199 228L200 229L199 228M198 231L199 232L198 231M505 233L506 234L505 233M197 234L198 235L197 234z"/>
<path style="fill:#0aa7e3; stroke:none;" d="M197 235L198 236L197 235z"/>
<path style="fill:#26c2f3; stroke:none;" d="M196.333 238.667L196.667 239.333L196.333 238.667M195.333 244.667L195.667 245.333L195.333 244.667z"/>
<path style="fill:#0aa7e3; stroke:none;" d="M195 246L196 247L195 246M195 265L196 266L195 265z"/>
<path style="fill:#26c2f3; stroke:none;" d="M195.333 266.667L195.667 267.333L195.333 266.667M196.333 272.667L196.667 273.333L196.333 272.667z"/>
<path style="fill:#0aa7e3; stroke:none;" d="M197 276L198 277L197 276z"/>
<path style="fill:#26c2f3; stroke:none;" d="M197 277L198 278L197 277M318 278L319 279L318 278M392.333 278.667L392.667 279.333L392.333 278.667M505 278L506 279L505 278M198 280L199 281L198 280z"/>
<path style="fill:#0aa7e3; stroke:none;" d="M317 280L318 281L317 280M392 280L393 281L392 280z"/>
<path style="fill:#26c2f3; stroke:none;" d="M317 281L318 282L317 281M199 283L200 284L199 283M316 284L317 285L316 284M391 284L392 285L391 284z"/>
<path style="fill:#0aa7e3; stroke:none;" d="M391 285L392 286L391 285z"/>
<path style="fill:#26c2f3; stroke:none;" d="M200 286L201 287L200 286z"/>
<path style="fill:#0aa7e3; stroke:none;" d="M315 286L316 287L315 286z"/>
<path style="fill:#26c2f3; stroke:none;" d="M315 287L316 288L315 287M201 288L202 289L201 288M314 289L315 290L314 289M390 289L391 290L390 289z"/>
<path style="fill:#0aa7e3; stroke:none;" d="M202 290L203 291L202 290M390 290L391 291L390 290z"/>
<path style="fill:#26c2f3; stroke:none;" d="M313 291L314 292L313 291M203 292L204 293L203 292M312 293L313 294L312 293M389 293L390 294L389 293M204 294L205 295L204 294z"/>
<path style="fill:#0aa7e3; stroke:none;" d="M389 294L390 295L389 294z"/>
<path style="fill:#26c2f3; stroke:none;" d="M311 295L312 296L311 295M205 296L206 297L205 296z"/>
<path style="fill:#0aa7e3; stroke:none;" d="M206 297L207 298L206 297z"/>
<path style="fill:#26c2f3; stroke:none;" d="M310 297L311 298L310 297M388 297L389 298L388 297z"/>
<path style="fill:#0aa7e3; stroke:none;" d="M309 298L310 299L309 298M388 298L389 299L388 298z"/>
<path style="fill:#26c2f3; stroke:none;" d="M207 299L208 300L207 299z"/>
<path style="fill:#0aa7e3; stroke:none;" d="M208 300L209 301L208 300z"/>
<path style="fill:#26c2f3; stroke:none;" d="M308 300L309 301L308 300M387 300L388 301L387 300z"/>
<path style="fill:#0278a4; stroke:none;" d="M502 300L503 301L502 300z"/>
<path style="fill:#0aa7e3; stroke:none;" d="M307 301L308 302L307 301M387 301L388 302L387 301z"/>
<path style="fill:#26c2f3; stroke:none;" d="M210 303L211 304L210 303M386 303L387 304L386 303z"/>
<path style="fill:#0278a4; stroke:none;" d="M501 303L502 304L501 303z"/>
<path style="fill:#26c2f3; stroke:none;" d="M211 304L212 305L211 304M305 304L306 305L305 304z"/>
<path style="fill:#0aa7e3; stroke:none;" d="M386 304L387 305L386 304z"/>
<path style="fill:#26c2f3; stroke:none;" d="M212 305L213 306L212 305M304 305L305 306L304 305z"/>
<path style="fill:#0aa7e3; stroke:none;" d="M213 306L214 307L213 306M303 306L304 307L303 306z"/>
<path style="fill:#26c2f3; stroke:none;" d="M385 306L386 307L385 306z"/>
<path style="fill:#0aa7e3; stroke:none;" d="M214 307L215 308L214 307M302 307L303 308L302 307M385 307L386 308L385 307M215 308L216 309L215 308M301 308L302 309L301 308M216 309L217 310L216 309M300 309L301 310L300 309z"/>
<path style="fill:#26c2f3; stroke:none;" d="M384 309L385 310L384 309M217 310L218 311L217 310z"/>
<path style="fill:#0aa7e3; stroke:none;" d="M299 310L300 311L299 310M384 310L385 311L384 310z"/>
<path style="fill:#26c2f3; stroke:none;" d="M218 311L219 312L218 311M298 311L299 312L298 311M219 312L220 313L219 312M297 312L298 313L297 312z"/>
<path style="fill:#0aa7e3; stroke:none;" d="M383 312L384 313L383 312z"/>
<path style="fill:#26c2f3; stroke:none;" d="M296 313L297 314L296 313M222 314L223 315L222 314z"/>
<path style="fill:#0aa7e3; stroke:none;" d="M294 314L295 315L294 314z"/>
<path style="fill:#26c2f3; stroke:none;" d="M382 314L383 315L382 314M293 315L294 316L293 315z"/>
<path style="fill:#0aa7e3; stroke:none;" d="M382 315L383 316L382 315z"/>
<path style="fill:#26c2f3; stroke:none;" d="M225 316L226 317L225 316z"/>
<path style="fill:#0aa7e3; stroke:none;" d="M291 316L292 317L291 316z"/>
<path style="fill:#26c2f3; stroke:none;" d="M381 316L382 317L381 316M290 317L291 318L290 317z"/>
<path style="fill:#0aa7e3; stroke:none;" d="M381 317L382 318L381 317z"/>
<path style="fill:#26c2f3; stroke:none;" d="M228 318L229 319L228 318z"/>
<path style="fill:#0aa7e3; stroke:none;" d="M288 318L289 319L288 318z"/>
<path style="fill:#26c2f3; stroke:none;" d="M230 319L231 320L230 319z"/>
<path style="fill:#0aa7e3; stroke:none;" d="M286 319L287 320L286 319M380 319L381 320L380 319z"/>
<path style="fill:#26c2f3; stroke:none;" d="M232 320L233 321L232 320z"/>
<path style="fill:#0aa7e3; stroke:none;" d="M284 320L285 321L284 320z"/>
<path style="fill:#26c2f3; stroke:none;" d="M235 321L236 322L235 321M282 321L283 322L282 321z"/>
<path style="fill:#0aa7e3; stroke:none;" d="M379 321L380 322L379 321z"/>
<path style="fill:#26c2f3; stroke:none;" d="M237 322L238 323L237 322z"/>
<path style="fill:#0aa7e3; stroke:none;" d="M238 322L239 323L238 322M279 322L280 323L279 322z"/>
<path style="fill:#26c2f3; stroke:none;" d="M280 322L281 323L280 322M240 323L241 324L240 323z"/>
<path style="fill:#0aa7e3; stroke:none;" d="M241 323L242 324L241 323z"/>
<path style="fill:#26c2f3; stroke:none;" d="M276.667 323.333L277.333 323.667L276.667 323.333z"/>
<path style="fill:#0aa7e3; stroke:none;" d="M378 323L379 324L378 323z"/>
<path style="fill:#26c2f3; stroke:none;" d="M244 324L245 325L244 324z"/>
<path style="fill:#0aa7e3; stroke:none;" d="M245 324L246 325L245 324z"/>
<path style="fill:#26c2f3; stroke:none;" d="M272.667 324.333L273.333 324.667L272.667 324.333M249 325L249 326L252 326L249 325z"/>
<path style="fill:#0aa7e3; stroke:none;" d="M252 325L253 326L252 325M265 325L266 326L265 325z"/>
<path style="fill:#26c2f3; stroke:none;" d="M266 325L266 326L269 326L266 325z"/>
<path style="fill:#0aa7e3; stroke:none;" d="M377 325L378 326L377 325z"/>
<path style="fill:#26c2f3; stroke:none;" d="M376 326L377 327L376 326M496 326L497 327L496 326z"/>
<path style="fill:#0aa7e3; stroke:none;" d="M376 327L377 328L376 327z"/>
<path style="fill:#26c2f3; stroke:none;" d="M375 328L376 329L375 328M374 330L375 331L374 330z"/>
<path style="fill:#0aa7e3; stroke:none;" d="M373 332L374 333L373 332z"/>
<path style="fill:#26c2f3; stroke:none;" d="M372 333L373 334L372 333z"/>
<path style="fill:#0aa7e3; stroke:none;" d="M371 335L372 336L371 335z"/>
<path style="fill:#26c2f3; stroke:none;" d="M370 336L371 337L370 336z"/>
<path style="fill:#0aa7e3; stroke:none;" d="M369 338L370 339L369 338z"/>
<path style="fill:#26c2f3; stroke:none;" d="M368 339L369 340L368 339z"/>
<path style="fill:#0aa7e3; stroke:none;" d="M367 341L368 342L367 341z"/>
<path style="fill:#26c2f3; stroke:none;" d="M366 342L367 343L366 342M365 343L366 344L365 343M490 344L491 345L490 344z"/>
<path style="fill:#0aa7e3; stroke:none;" d="M364 345L365 346L364 345M363 346L364 347L363 346z"/>
<path style="fill:#26c2f3; stroke:none;" d="M362 347L363 348L362 347M361 348L362 349L361 348M360 349L361 350L360 349z"/>
<path style="fill:#0278a4; stroke:none;" d="M488 349L489 350L488 349z"/>
<path style="fill:#0aa7e3; stroke:none;" d="M359 351L360 352L359 351M358 352L359 353L358 352M357 353L358 354L357 353M356 354L357 355L356 354z"/>
<path style="fill:#26c2f3; stroke:none;" d="M486 354L487 355L486 354z"/>
<path style="fill:#0aa7e3; stroke:none;" d="M355 355L356 356L355 355z"/>
<path style="fill:#26c2f3; stroke:none;" d="M161 356L162 357L161 356z"/>
<path style="fill:#0aa7e3; stroke:none;" d="M354 356L355 357L354 356z"/>
<path style="fill:#26c2f3; stroke:none;" d="M162 357L163 358L162 357z"/>
<path style="fill:#0aa7e3; stroke:none;" d="M353 357L354 358L353 357z"/>
<path style="fill:#26c2f3; stroke:none;" d="M163 358L164 359L163 358z"/>
<path style="fill:#0aa7e3; stroke:none;" d="M352 358L353 359L352 358z"/>
<path style="fill:#26c2f3; stroke:none;" d="M164 359L165 360L164 359z"/>
<path style="fill:#0aa7e3; stroke:none;" d="M351 359L352 360L351 359z"/>
<path style="fill:#26c2f3; stroke:none;" d="M165 360L166 361L165 360z"/>
<path style="fill:#0aa7e3; stroke:none;" d="M350 360L351 361L350 360M349 361L350 362L349 361z"/>
<path style="fill:#26c2f3; stroke:none;" d="M347 362L348 363L347 362M169 363L170 364L169 363M346 363L347 364L346 363M170 364L171 365L170 364z"/>
<path style="fill:#0aa7e3; stroke:none;" d="M345 364L346 365L345 364M344 365L345 366L344 365z"/>
<path style="fill:#0278a4; stroke:none;" d="M172 366L173 367L172 366z"/>
<path style="fill:#26c2f3; stroke:none;" d="M342 366L343 367L342 366z"/>
<path style="fill:#0aa7e3; stroke:none;" d="M343 366L344 367L343 366z"/>
<path style="fill:#0278a4; stroke:none;" d="M173 367L175 369L173 367z"/>
<path style="fill:#26c2f3; stroke:none;" d="M174 367L175 368L174 367M341 367L342 368L341 367z"/>
<path style="fill:#0aa7e3; stroke:none;" d="M340 368L341 369L340 368z"/>
<path style="fill:#0278a4; stroke:none;" d="M175 369C189.789 389.995 212.827 407.827 231 426L232 426L239 419L239 427L250 417L250 420L251 420L261 410L261 414L271 405L271 408L272 408L281 399L281 402L282 402L291 393L291 401L301 392L301 395L302 395L310 386C300.226 387.443 290.872 391.315 281 392.715C260.074 395.681 238.332 394.375 218 388.573C202.371 384.112 189.828 374.612 175 369z"/>
<path style="fill:#26c2f3; stroke:none;" d="M177 369L178 370L177 369M338 369L339 370L338 369z"/>
<path style="fill:#0aa7e3; stroke:none;" d="M339 369L340 370L339 369M178 370L179 371L178 370M337 370L338 371L337 370z"/>
<path style="fill:#26c2f3; stroke:none;" d="M180 371L181 372L180 371M335 371L336 372L335 371z"/>
<path style="fill:#0aa7e3; stroke:none;" d="M336 371L337 372L336 371M181 372L182 373L181 372z"/>
<path style="fill:#26c2f3; stroke:none;" d="M334 372L335 373L334 372M183 373L184 374L183 373M332 373L333 374L332 373z"/>
<path style="fill:#0aa7e3; stroke:none;" d="M333 373L334 374L333 373z"/>
<path style="fill:#26c2f3; stroke:none;" d="M185 374L186 375L185 374z"/>
<path style="fill:#0aa7e3; stroke:none;" d="M331 374L332 375L331 374M186 375L187 376L186 375z"/>
<path style="fill:#26c2f3; stroke:none;" d="M329 375L330 376L329 375z"/>
<path style="fill:#0aa7e3; stroke:none;" d="M188 376L189 377L188 376z"/>
<path style="fill:#26c2f3; stroke:none;" d="M327 376L328 377L327 376z"/>
<path style="fill:#0aa7e3; stroke:none;" d="M328 376L329 377L328 376z"/>
<path style="fill:#26c2f3; stroke:none;" d="M190 377L191 378L190 377M325 377L326 378L325 377z"/>
<path style="fill:#0aa7e3; stroke:none;" d="M326 377L327 378L326 377z"/>
<path style="fill:#26c2f3; stroke:none;" d="M192 378L193 379L192 378z"/>
<path style="fill:#0aa7e3; stroke:none;" d="M324 378L325 379L324 378z"/>
<path style="fill:#26c2f3; stroke:none;" d="M194 379L195 380L194 379z"/>
<path style="fill:#0aa7e3; stroke:none;" d="M322 379L323 380L322 379z"/>
<path style="fill:#26c2f3; stroke:none;" d="M196 380L197 381L196 380z"/>
<path style="fill:#0aa7e3; stroke:none;" d="M198 381L199 382L198 381z"/>
<path style="fill:#26c2f3; stroke:none;" d="M317 381L318 382L317 381z"/>
<path style="fill:#0aa7e3; stroke:none;" d="M200 382L201 383L200 382z"/>
<path style="fill:#26c2f3; stroke:none;" d="M201 382L202 383L201 382M315 382L316 383L315 382z"/>
<path style="fill:#0278a4; stroke:none;" d="M317 382L318 383L317 382z"/>
<path style="fill:#26c2f3; stroke:none;" d="M203 383L204 384L203 383M313 383L314 384L313 383z"/>
<path style="fill:#0aa7e3; stroke:none;" d="M314 383L315 384L314 383z"/>
<path style="fill:#0278a4; stroke:none;" d="M310 385L311 389L317 383L310 385z"/>
<path style="fill:#0aa7e3; stroke:none;" d="M205 384L206 385L205 384z"/>
<path style="fill:#26c2f3; stroke:none;" d="M206 384L207 385L206 384M310 384L311 385L310 384z"/>
<path style="fill:#0aa7e3; stroke:none;" d="M311 384L312 385L311 384z"/>
<path style="fill:#26c2f3; stroke:none;" d="M208 385L209 386L208 385M308 385L309 386L308 385M211.667 386.333L212.333 386.667L211.667 386.333M305 386L306 387L305 386z"/>
<path style="fill:#0aa7e3; stroke:none;" d="M306 386L307 387L306 386z"/>
<path style="fill:#26c2f3; stroke:none;" d="M214.667 387.333L215.333 387.667L214.667 387.333M302 387L303 388L302 387z"/>
<path style="fill:#0aa7e3; stroke:none;" d="M303 387L304 388L303 387M217 388L218 389L217 388z"/>
<path style="fill:#26c2f3; stroke:none;" d="M218 388L219 389L218 388M298.667 388.333L299.333 388.667L298.667 388.333z"/>
<path style="fill:#0aa7e3; stroke:none;" d="M300 388L301 389L300 388z"/>
<path style="fill:#26c2f3; stroke:none;" d="M221.667 389.333L222.333 389.667L221.667 389.333M294.667 389.333L295.333 389.667L294.667 389.333z"/>
<path style="fill:#0aa7e3; stroke:none;" d="M296 389L297 390L296 389M225 390L226 391L225 390z"/>
<path style="fill:#26c2f3; stroke:none;" d="M226 390L227 391L226 390M290.667 390.333L291.333 390.667L290.667 390.333z"/>
<path style="fill:#0aa7e3; stroke:none;" d="M292 390L293 391L292 390M229 391L230 392L229 391z"/>
<path style="fill:#26c2f3; stroke:none;" d="M230 391L230 392L233 392L230 391M285.667 391.333L286.333 391.667L285.667 391.333z"/>
<path style="fill:#0aa7e3; stroke:none;" d="M287 391L288 392L287 391M235 392L236 393L235 392z"/>
<path style="fill:#26c2f3; stroke:none;" d="M236 392L236 393L239 393L236 392M279.667 392.333L280.333 392.667L279.667 392.333z"/>
<path style="fill:#0aa7e3; stroke:none;" d="M281.667 392.333L282.333 392.667L281.667 392.333M243.667 393.333L244.333 393.667L243.667 393.333z"/>
<path style="fill:#26c2f3; stroke:none;" d="M245 393L245 394L250 394L245 393M268 393L268 394L273 394L268 393z"/>
<path style="fill:#0aa7e3; stroke:none;" d="M273.667 393.333L274.333 393.667L273.667 393.333z"/>
<path style="fill:#26c2f3; stroke:none;" d="M465 393L466 394L465 393M452 411L453 412L452 411z"/>
<path style="fill:#0aa7e3; stroke:none;" d="M70 424L71 425L70 424z"/>
<path style="fill:#0278a4; stroke:none;" d="M441 424L442 425L441 424z"/>
<path style="fill:#0aa7e3; stroke:none;" d="M71 425L72 426L71 425z"/>
<path style="fill:#0278a4; stroke:none;" d="M440 425L441 426L440 425z"/>
<path style="fill:#0aa7e3; stroke:none;" d="M73 427L74 428L73 427M84 438L85 439L84 438M86 440L87 441L86 440z"/>
<path style="fill:#0278a4; stroke:none;" d="M425 440L426 441L425 440z"/>
<path style="fill:#0aa7e3; stroke:none;" d="M87 441L88 442L87 441z"/>
<path style="fill:#0278a4; stroke:none;" d="M424 441L425 442L424 441z"/>
<path style="fill:#26c2f3; stroke:none;" d="M411 452L412 453L411 452z"/>
<path style="fill:#0278a4; stroke:none;" d="M393 465L394 466L393 465z"/>
<path style="fill:#0aa7e3; stroke:none;" d="M133 474L134 475L133 474M145 480L146 481L145 480M150 482L151 483L150 482z"/>
<path style="fill:#26c2f3; stroke:none;" d="M157 486L157 487L160 487L157 486M354 486L355 487L354 486M160 487L161 488L160 487M162 488L163 489L162 488M165 489L166 490L165 489M167 490L168 491L167 490M170 491L171 492L170 491M179 494L180 495L179 494M185 496L186 497L185 496z"/>
</svg>
